<?xml version="1.0" encoding="UTF-8"?>
<svg xmlns="http://www.w3.org/2000/svg" version="1.1" viewBox="0 0 2000 2000">
  <!-- Generator: Adobe Illustrator 29.6.1, SVG Export Plug-In . SVG Version: 2.1.1 Build 9)  -->
  <defs>
    <style>
      .st0 {
        fill: #2bafa2;
      }
    </style>
  </defs>
  <g id="Layer_2">
    <path class="st0" d="M1604.86,800.64H411.14c-36.88,0-66.78,29.9-66.78,66.78v702.81c0,36.88,29.9,66.78,66.78,66.78h1193.72c36.88,0,66.78-29.9,66.78-66.78v-702.81c0-36.88-29.9-66.78-66.78-66.78ZM728.36,1219.02c5.75,14.68,13.69,27.28,23.8,37.78,10.11,10.51,22.31,18.55,36.59,24.1,14.28,5.56,29.95,8.33,47,8.33,19.83,0,37.78-4.17,53.85-12.5s30.84-20.42,44.33-36.29l74.97,67.83c-20.23,24.99-45.52,44.33-75.86,58.01-30.35,13.68-64.76,20.53-103.23,20.53-32.93,0-63.37-5.26-91.33-15.77-27.97-10.51-52.17-25.48-72.59-44.92-20.43-19.43-36.4-42.34-47.9-68.72-11.51-26.38-17.25-55.43-17.25-87.17s5.75-60.78,17.25-87.17c11.5-26.38,27.46-49.28,47.9-68.72,20.43-19.43,44.62-34.41,72.59-44.92,27.96-10.51,58.4-15.77,91.33-15.77,38.47,0,72.89,6.75,103.23,20.23,30.34,13.49,55.63,32.93,75.86,58.31l-74.97,67.83c-13.49-15.86-28.26-27.96-44.33-36.29s-34.02-12.5-53.85-12.5c-17.06,0-32.73,2.78-47,8.33-14.28,5.56-26.48,13.59-36.59,24.1-10.12,10.51-18.05,23.11-23.8,37.78-5.75,14.68-8.63,30.94-8.63,48.79s2.87,34.12,8.63,48.79ZM1146.04,1219.02c5.75,14.68,13.69,27.28,23.8,37.78,10.12,10.51,22.31,18.55,36.59,24.1,14.28,5.56,29.95,8.33,47,8.33,19.83,0,37.78-4.17,53.85-12.5s30.84-20.42,44.33-36.29l74.97,67.83c-20.23,24.99-45.52,44.33-75.86,58.01-30.34,13.68-64.76,20.53-103.23,20.53-32.93,0-63.37-5.26-91.33-15.77s-52.17-25.48-72.59-44.92c-20.43-19.43-36.4-42.34-47.9-68.72-11.51-26.38-17.25-55.43-17.25-87.17s5.75-60.78,17.25-87.17c11.5-26.38,27.46-49.28,47.9-68.72,20.42-19.43,44.62-34.41,72.59-44.92,27.96-10.51,58.4-15.77,91.33-15.77,38.47,0,72.89,6.75,103.23,20.23,30.35,13.49,55.63,32.93,75.86,58.31l-74.97,67.83c-13.49-15.86-28.26-27.96-44.33-36.29s-34.02-12.5-53.85-12.5c-17.06,0-32.72,2.78-47,8.33-14.28,5.56-26.48,13.59-36.59,24.1-10.11,10.51-18.05,23.11-23.8,37.78-5.75,14.68-8.63,30.94-8.63,48.79s2.87,34.12,8.63,48.79Z"/>
  </g>
  <g id="Layer_3">
    <g>
      <path class="st0" d="M343.71,750.89v-456.98h233.71c60.06,0,104.88,11,134.48,32.97,29.59,21.98,44.39,50.82,44.39,86.5,0,23.5-6.2,44.07-18.61,61.69-12.4,17.63-29.82,31.56-52.23,41.78-22.42,10.23-49.07,15.34-79.97,15.34l13.06-31.34c32.2,0,60.27,4.9,84.21,14.69,23.93,9.79,42.54,23.94,55.82,42.43,13.27,18.5,19.91,41.03,19.91,67.57,0,39.61-15.99,70.4-47.98,92.37-31.99,21.98-78.67,32.97-140.03,32.97h-246.77ZM471.67,657.54h108.37c22.2,0,39.06-3.8,50.59-11.42,11.53-7.61,17.3-19.26,17.3-34.93s-5.77-27.31-17.3-34.93c-11.54-7.61-28.4-11.42-50.59-11.42h-117.51v-89.44h97.92c21.76,0,38.08-3.69,48.96-11.1,10.87-7.4,16.32-18.49,16.32-33.29s-5.45-25.79-16.32-32.97c-10.88-7.18-27.2-10.77-48.96-10.77h-88.78v270.27Z"/>
      <path class="st0" d="M845.73,750.89v-456.98h358.4v99.88h-230.45v257.21h238.93v99.88h-366.89ZM964.54,567.45v-96.62h212.17v96.62h-212.17Z"/>
      <path class="st0" d="M1261.58,750.89v-80.95l268.96-319.23,15.67,45.7h-278.75v-102.49c134.18.03,268.36.06,402.55.08v82c-92.62,106.03-185.24,212.07-277.86,318.1l-15.67-45.7h294.42v102.49h-409.32Z"/>
    </g>
  </g>
</svg>