<?xml version="1.0" encoding="UTF-8"?>
<svg id="LOGOS" xmlns="http://www.w3.org/2000/svg" viewBox="0 0 1300 1300">
  <defs>
    <style>
      .cls-1 {
        fill: #fff;
      }
    </style>
  </defs>
  <path class="cls-1" d="M831.42,287.81c-32.26-21.04-55.55-54.69-62.81-93.92-1.57-8.48-2.43-17.2-2.43-26.13h-102.97l-.17,412.66c-1.73,46.21-39.76,83.3-86.39,83.3-14.49,0-28.14-3.62-40.15-9.95-27.55-14.5-46.4-43.38-46.4-76.61,0-47.73,38.83-86.56,86.55-86.56,8.91,0,17.45,1.47,25.54,4v-105.12c-8.37-1.14-16.87-1.85-25.54-1.85-104.5,0-189.52,85.02-189.52,189.52,0,64.12,32.04,120.86,80.91,155.17,30.78,21.61,68.23,34.35,108.61,34.35,104.5,0,189.52-85.02,189.52-189.52v-209.25c40.38,28.99,89.86,46.07,143.25,46.07v-102.97c-28.76,0-55.55-8.55-78.01-23.2Z"/>
  <g>
    <path class="cls-1" d="M166.11,882.9h165.9l-15.23,47.46-43.04-.02v175.49h-53.63v-175.49l-53.96.1-.04-47.55Z"/>
    <path class="cls-1" d="M603.79,882.9h169.74l-15.23,47.46-46.79-.02v175.49h-53.71v-175.49l-53.96.1-.04-47.55Z"/>
    <polygon class="cls-1" points="342.13 953.81 395.32 953.81 395.26 1105.84 342.45 1105.84 342.13 953.81"/>
    <path class="cls-1" d="M416.42,882.28h53.13v103.82l52.66-51.67h63.43s-66.61,64.64-66.61,64.64l74.6,106.77h-58.54l-49.79-74.04-15.75,15.31v58.73h-53.13v-223.56Z"/>
    <path class="cls-1" d="M956.68,882.28h53.13v103.82l52.66-51.67h63.43s-66.61,64.64-66.61,64.64l74.6,106.77h-58.54l-49.79-74.04-15.75,15.31v58.73h-53.13v-223.56Z"/>
    <circle class="cls-1" cx="368.71" cy="909.67" r="26.77"/>
    <path class="cls-1" d="M844.08,923.83c-50.26,0-91,40.74-91,91s40.74,91,91,91,91-40.74,91-91-40.74-91-91-91ZM844.08,1059.07c-24.43,0-44.24-19.81-44.24-44.24s19.81-44.24,44.24-44.24,44.24,19.81,44.24,44.24-19.81,44.24-44.24,44.24Z"/>
  </g>
</svg>